<svg role="img" viewBox="0 0 24 24" xmlns="http://www.w3.org/2000/svg"><path d="M7.88 12.04q0-.45.11-.88.12-.44.34-.79.22-.35.54-.57.33-.23.76-.23.43 0 .76.23.33.22.55.57.22.35.34.79.11.43.11.88 0 .45-.11.88-.12.44-.34.79-.22.35-.55.57-.33.23-.76.23-.43 0-.76-.23-.32-.22-.54-.57-.22-.35-.34-.79-.11-.43-.11-.88zM12 2L1 5.63v12.74L12 22l11-3.63V5.63zm-1.14 14.53q-.75.36-1.6.36-.86 0-1.61-.36-.75-.37-1.32-1-.57-.64-.9-1.48Q5.1 13.57 5.1 12q0-1.57.33-2.41.33-.84.9-1.48.57-.63 1.32-1 .75-.36 1.61-.36.85 0 1.6.36.75.37 1.32 1 .57.64.9 1.48.33.84.33 2.41 0 1.57-.33 2.41-.33.84-.9 1.48-.57.63-1.32 1z"/></svg>
